<?xml version="1.0" encoding="utf-8"?>
<!-- Generator: Adobe Illustrator 24.2.3, SVG Export Plug-In . SVG Version: 6.00 Build 0)  -->
<svg version="1.1" id="Layer_1" xmlns="http://www.w3.org/2000/svg" xmlns:xlink="http://www.w3.org/1999/xlink" x="0px" y="0px"
	 viewBox="0 0 560 420" style="enable-background:new 0 0 560 420;" xml:space="preserve">
<style type="text/css">
	.st0{fill:none;stroke:#262626;stroke-width:0.5;stroke-linecap:square;stroke-linejoin:round;stroke-miterlimit:10;}
	.st1{fill:#262626;}
	.st2{fill:none;stroke:#A43F96;stroke-width:0.5;stroke-linecap:square;stroke-linejoin:round;stroke-miterlimit:10;}
	.st3{fill:#A43F96;}
	.st4{fill:none;stroke:#A43F96;stroke-width:2;stroke-linejoin:round;stroke-miterlimit:10;}
	.st5{fill:none;stroke:#000000;stroke-linejoin:bevel;stroke-miterlimit:1;stroke-dasharray:10,6;}
	.st6{fill:none;stroke:#3A53A3;stroke-width:0.5;stroke-linecap:square;stroke-linejoin:round;stroke-miterlimit:10;}
	.st7{fill:#3A53A3;}
	.st8{fill:none;stroke:#3A53A3;stroke-width:2;stroke-linejoin:round;stroke-miterlimit:10;}
	.st9{fill:none;stroke:#0F8040;stroke-width:0.5;stroke-linecap:square;stroke-linejoin:round;stroke-miterlimit:10;}
	.st10{fill:#0F8040;}
	.st11{fill:none;stroke:#0F8040;stroke-width:2;stroke-linejoin:round;stroke-miterlimit:10;}
</style>
<g>
	<g>
		<g>
			<defs>
				<rect id="SVGID_1_" width="560" height="420"/>
			</defs>
			<clipPath id="SVGID_2_">
				<use xlink:href="#SVGID_1_"  style="overflow:visible;"/>
			</clipPath>
		</g>
	</g>
	<g>
		<line class="st0" x1="73" y1="175" x2="507" y2="175"/>
		<line class="st0" x1="73" y1="175" x2="73" y2="170.7"/>
		<line class="st0" x1="135" y1="175" x2="135" y2="170.7"/>
		<line class="st0" x1="197" y1="175" x2="197" y2="170.7"/>
		<line class="st0" x1="259" y1="175" x2="259" y2="170.7"/>
		<line class="st0" x1="321" y1="175" x2="321" y2="170.7"/>
		<line class="st0" x1="383" y1="175" x2="383" y2="170.7"/>
		<line class="st0" x1="445" y1="175" x2="445" y2="170.7"/>
		<line class="st0" x1="507" y1="175" x2="507" y2="170.7"/>
	</g>
	<g transform="translate(73,179.4667)">
		<path class="st1" d="M-7.9,15h-1.5V5.8c-0.3,0.3-0.8,0.7-1.4,1c-0.6,0.3-1.1,0.6-1.5,0.7V6.1c0.8-0.4,1.5-0.8,2.1-1.4
			c0.6-0.5,1-1.1,1.3-1.6h0.9V15z M-4.1,9.2c0-1.4,0.1-2.5,0.4-3.4C-3.4,5-3,4.3-2.4,3.8c0.6-0.5,1.3-0.7,2.1-0.7
			c0.6,0,1.2,0.1,1.7,0.4c0.5,0.3,0.9,0.6,1.2,1.1c0.3,0.5,0.6,1.1,0.7,1.8C3.5,7.1,3.6,8,3.6,9.2c0,1.4-0.1,2.5-0.4,3.4
			c-0.3,0.9-0.7,1.5-1.3,2s-1.3,0.7-2.1,0.7c-1.1,0-2-0.4-2.7-1.2C-3.7,13-4.1,11.4-4.1,9.2z M-2.6,9.2c0,1.9,0.2,3.2,0.7,3.9
			c0.5,0.6,1,1,1.7,1s1.2-0.3,1.7-1s0.7-1.9,0.7-3.9c0-1.9-0.2-3.2-0.7-3.9s-1-1-1.7-1c-0.7,0-1.2,0.3-1.6,0.8
			C-2.4,5.9-2.6,7.2-2.6,9.2z M9.7,15v-2.8H4.6v-1.3L10,3.2h1.2v7.7h1.6v1.3h-1.6V15H9.7z M9.7,10.8V5.5L6,10.8H9.7z"/>
	</g>
	<g transform="translate(135,179.4667)">
		<path class="st1" d="M-7.9,15h-1.5V5.8c-0.3,0.3-0.8,0.7-1.4,1c-0.6,0.3-1.1,0.6-1.5,0.7V6.1c0.8-0.4,1.5-0.8,2.1-1.4
			c0.6-0.5,1-1.1,1.3-1.6h0.9V15z M-4.1,9.2c0-1.4,0.1-2.5,0.4-3.4C-3.4,5-3,4.3-2.4,3.8c0.6-0.5,1.3-0.7,2.1-0.7
			c0.6,0,1.2,0.1,1.7,0.4c0.5,0.3,0.9,0.6,1.2,1.1c0.3,0.5,0.6,1.1,0.7,1.8C3.5,7.1,3.6,8,3.6,9.2c0,1.4-0.1,2.5-0.4,3.4
			c-0.3,0.9-0.7,1.5-1.3,2s-1.3,0.7-2.1,0.7c-1.1,0-2-0.4-2.7-1.2C-3.7,13-4.1,11.4-4.1,9.2z M-2.6,9.2c0,1.9,0.2,3.2,0.7,3.9
			c0.5,0.6,1,1,1.7,1s1.2-0.3,1.7-1s0.7-1.9,0.7-3.9c0-1.9-0.2-3.2-0.7-3.9s-1-1-1.7-1c-0.7,0-1.2,0.3-1.6,0.8
			C-2.4,5.9-2.6,7.2-2.6,9.2z M12.6,6.1l-1.4,0.1c-0.1-0.6-0.3-1-0.5-1.2c-0.4-0.4-0.9-0.6-1.5-0.6c-0.5,0-0.9,0.1-1.2,0.4
			C7.4,5.1,7.1,5.5,6.8,6.2C6.6,6.8,6.4,7.7,6.4,8.9C6.8,8.4,7.2,8,7.7,7.7c0.5-0.3,1-0.4,1.6-0.4c1,0,1.8,0.4,2.5,1.1
			c0.7,0.7,1,1.6,1,2.8c0,0.7-0.2,1.4-0.5,2.1c-0.3,0.6-0.8,1.1-1.3,1.5c-0.6,0.3-1.2,0.5-1.9,0.5c-1.2,0-2.2-0.4-3-1.3
			C5.4,13,5,11.5,5,9.5c0-2.3,0.4-3.9,1.3-5C7,3.6,8,3.1,9.2,3.1c0.9,0,1.7,0.3,2.3,0.8C12.1,4.4,12.4,5.2,12.6,6.1z M6.6,11.2
			c0,0.5,0.1,1,0.3,1.4c0.2,0.5,0.5,0.8,0.9,1C8.2,13.9,8.6,14,9.1,14c0.6,0,1.1-0.2,1.6-0.7c0.4-0.5,0.7-1.2,0.7-2
			c0-0.8-0.2-1.5-0.7-1.9c-0.4-0.5-1-0.7-1.6-0.7c-0.7,0-1.2,0.2-1.7,0.7C6.9,9.8,6.6,10.4,6.6,11.2z"/>
	</g>
	<g transform="translate(197,179.4667)">
		<path class="st1" d="M-7.9,15h-1.5V5.8c-0.3,0.3-0.8,0.7-1.4,1c-0.6,0.3-1.1,0.6-1.5,0.7V6.1c0.8-0.4,1.5-0.8,2.1-1.4
			c0.6-0.5,1-1.1,1.3-1.6h0.9V15z M-4.1,9.2c0-1.4,0.1-2.5,0.4-3.4C-3.4,5-3,4.3-2.4,3.8c0.6-0.5,1.3-0.7,2.1-0.7
			c0.6,0,1.2,0.1,1.7,0.4c0.5,0.3,0.9,0.6,1.2,1.1c0.3,0.5,0.6,1.1,0.7,1.8C3.5,7.1,3.6,8,3.6,9.2c0,1.4-0.1,2.5-0.4,3.4
			c-0.3,0.9-0.7,1.5-1.3,2s-1.3,0.7-2.1,0.7c-1.1,0-2-0.4-2.7-1.2C-3.7,13-4.1,11.4-4.1,9.2z M-2.6,9.2c0,1.9,0.2,3.2,0.7,3.9
			c0.5,0.6,1,1,1.7,1s1.2-0.3,1.7-1s0.7-1.9,0.7-3.9c0-1.9-0.2-3.2-0.7-3.9s-1-1-1.7-1c-0.7,0-1.2,0.3-1.6,0.8
			C-2.4,5.9-2.6,7.2-2.6,9.2z M7.3,8.6c-0.6-0.2-1-0.5-1.3-0.9C5.6,7.2,5.5,6.8,5.5,6.2c0-0.9,0.3-1.6,0.9-2.2s1.4-0.9,2.5-0.9
			c1,0,1.9,0.3,2.5,0.9c0.6,0.6,0.9,1.3,0.9,2.2c0,0.5-0.1,1-0.4,1.4c-0.3,0.4-0.7,0.7-1.3,0.9c0.7,0.2,1.3,0.6,1.7,1.1
			c0.4,0.5,0.6,1.2,0.6,1.9c0,1-0.4,1.9-1.1,2.5c-0.7,0.7-1.7,1-2.8,1s-2.1-0.3-2.8-1C5.4,13.5,5,12.6,5,11.6c0-0.8,0.2-1.4,0.6-1.9
			C6,9.1,6.5,8.8,7.3,8.6z M7,6.1c0,0.6,0.2,1,0.5,1.4C7.9,7.9,8.3,8,8.9,8c0.6,0,1-0.2,1.4-0.5c0.4-0.4,0.5-0.8,0.5-1.3
			c0-0.5-0.2-1-0.6-1.3C9.9,4.5,9.5,4.3,8.9,4.3c-0.6,0-1,0.2-1.4,0.5C7.2,5.2,7,5.6,7,6.1z M6.5,11.6c0,0.4,0.1,0.8,0.3,1.2
			c0.2,0.4,0.5,0.7,0.9,0.9C8.1,13.9,8.5,14,8.9,14c0.7,0,1.3-0.2,1.7-0.7c0.5-0.4,0.7-1,0.7-1.7c0-0.7-0.2-1.3-0.7-1.7
			c-0.5-0.5-1-0.7-1.7-0.7c-0.7,0-1.2,0.2-1.7,0.7C6.7,10.4,6.5,10.9,6.5,11.6z"/>
	</g>
	<g transform="translate(259,179.4667)">
		<path class="st1" d="M-7.9,15h-1.5V5.8c-0.3,0.3-0.8,0.7-1.4,1c-0.6,0.3-1.1,0.6-1.5,0.7V6.1c0.8-0.4,1.5-0.8,2.1-1.4
			c0.6-0.5,1-1.1,1.3-1.6h0.9V15z M1.3,15h-1.5V5.8c-0.3,0.3-0.8,0.7-1.4,1C-2.1,7.1-2.6,7.3-3,7.5V6.1c0.8-0.4,1.5-0.8,2.1-1.4
			s1-1.1,1.3-1.6h0.9V15z M5,9.2c0-1.4,0.1-2.5,0.4-3.4c0.3-0.9,0.7-1.5,1.3-2C7.3,3.4,8,3.1,8.9,3.1c0.6,0,1.2,0.1,1.7,0.4
			c0.5,0.3,0.9,0.6,1.2,1.1c0.3,0.5,0.6,1.1,0.7,1.8c0.2,0.7,0.3,1.6,0.3,2.8c0,1.4-0.1,2.5-0.4,3.4c-0.3,0.9-0.7,1.5-1.3,2
			c-0.6,0.5-1.3,0.7-2.1,0.7c-1.1,0-2-0.4-2.7-1.2C5.4,13,5,11.4,5,9.2z M6.5,9.2c0,1.9,0.2,3.2,0.7,3.9c0.5,0.6,1,1,1.7,1
			c0.7,0,1.2-0.3,1.7-1c0.5-0.6,0.7-1.9,0.7-3.9c0-1.9-0.2-3.2-0.7-3.9c-0.5-0.6-1-1-1.7-1c-0.7,0-1.2,0.3-1.6,0.8
			C6.8,5.9,6.5,7.2,6.5,9.2z"/>
	</g>
	<g transform="translate(321,179.4667)">
		<path class="st1" d="M-7.9,15h-1.5V5.8c-0.3,0.3-0.8,0.7-1.4,1c-0.6,0.3-1.1,0.6-1.5,0.7V6.1c0.8-0.4,1.5-0.8,2.1-1.4
			c0.6-0.5,1-1.1,1.3-1.6h0.9V15z M1.3,15h-1.5V5.8c-0.3,0.3-0.8,0.7-1.4,1C-2.1,7.1-2.6,7.3-3,7.5V6.1c0.8-0.4,1.5-0.8,2.1-1.4
			s1-1.1,1.3-1.6h0.9V15z M12.7,13.6V15H4.9c0-0.3,0-0.7,0.2-1c0.2-0.5,0.5-1.1,1-1.6c0.4-0.5,1.1-1.1,1.9-1.8
			c1.3-1.1,2.2-1.9,2.6-2.5c0.5-0.6,0.7-1.2,0.7-1.7c0-0.6-0.2-1.1-0.6-1.5c-0.4-0.4-0.9-0.6-1.6-0.6C8.2,4.3,7.7,4.6,7.3,5
			C6.8,5.4,6.6,6,6.6,6.7L5.1,6.6c0.1-1.1,0.5-2,1.2-2.5C6.9,3.4,7.8,3.1,9,3.1c1.1,0,2,0.3,2.7,0.9c0.7,0.6,1,1.4,1,2.3
			c0,0.5-0.1,0.9-0.3,1.4c-0.2,0.5-0.5,0.9-1,1.4c-0.4,0.5-1.2,1.2-2.2,2.1c-0.9,0.7-1.4,1.2-1.7,1.5c-0.2,0.3-0.5,0.5-0.6,0.8H12.7
			z"/>
	</g>
	<g transform="translate(383,179.4667)">
		<path class="st1" d="M-7.9,15h-1.5V5.8c-0.3,0.3-0.8,0.7-1.4,1c-0.6,0.3-1.1,0.6-1.5,0.7V6.1c0.8-0.4,1.5-0.8,2.1-1.4
			c0.6-0.5,1-1.1,1.3-1.6h0.9V15z M1.3,15h-1.5V5.8c-0.3,0.3-0.8,0.7-1.4,1C-2.1,7.1-2.6,7.3-3,7.5V6.1c0.8-0.4,1.5-0.8,2.1-1.4
			s1-1.1,1.3-1.6h0.9V15z M9.7,15v-2.8H4.6v-1.3L10,3.2h1.2v7.7h1.6v1.3h-1.6V15H9.7z M9.7,10.8V5.5L6,10.8H9.7z"/>
	</g>
	<g transform="translate(445,179.4667)">
		<path class="st1" d="M-7.9,15h-1.5V5.8c-0.3,0.3-0.8,0.7-1.4,1c-0.6,0.3-1.1,0.6-1.5,0.7V6.1c0.8-0.4,1.5-0.8,2.1-1.4
			c0.6-0.5,1-1.1,1.3-1.6h0.9V15z M1.3,15h-1.5V5.8c-0.3,0.3-0.8,0.7-1.4,1C-2.1,7.1-2.6,7.3-3,7.5V6.1c0.8-0.4,1.5-0.8,2.1-1.4
			s1-1.1,1.3-1.6h0.9V15z M12.6,6.1l-1.4,0.1c-0.1-0.6-0.3-1-0.5-1.2c-0.4-0.4-0.9-0.6-1.5-0.6c-0.5,0-0.9,0.1-1.2,0.4
			C7.4,5.1,7.1,5.5,6.8,6.2C6.6,6.8,6.4,7.7,6.4,8.9C6.8,8.4,7.2,8,7.7,7.7c0.5-0.3,1-0.4,1.6-0.4c1,0,1.8,0.4,2.5,1.1
			c0.7,0.7,1,1.6,1,2.8c0,0.7-0.2,1.4-0.5,2.1c-0.3,0.6-0.8,1.1-1.3,1.5c-0.6,0.3-1.2,0.5-1.9,0.5c-1.2,0-2.2-0.4-3-1.3
			C5.4,13,5,11.5,5,9.5c0-2.3,0.4-3.9,1.3-5C7,3.6,8,3.1,9.2,3.1c0.9,0,1.7,0.3,2.3,0.8C12.1,4.4,12.4,5.2,12.6,6.1z M6.6,11.2
			c0,0.5,0.1,1,0.3,1.4c0.2,0.5,0.5,0.8,0.9,1C8.2,13.9,8.6,14,9.1,14c0.6,0,1.1-0.2,1.6-0.7c0.4-0.5,0.7-1.2,0.7-2
			c0-0.8-0.2-1.5-0.7-1.9c-0.4-0.5-1-0.7-1.6-0.7c-0.7,0-1.2,0.2-1.7,0.7C6.9,9.8,6.6,10.4,6.6,11.2z"/>
	</g>
	<g transform="translate(507,179.4667)">
		<path class="st1" d="M-7.9,15h-1.5V5.8c-0.3,0.3-0.8,0.7-1.4,1c-0.6,0.3-1.1,0.6-1.5,0.7V6.1c0.8-0.4,1.5-0.8,2.1-1.4
			c0.6-0.5,1-1.1,1.3-1.6h0.9V15z M1.3,15h-1.5V5.8c-0.3,0.3-0.8,0.7-1.4,1C-2.1,7.1-2.6,7.3-3,7.5V6.1c0.8-0.4,1.5-0.8,2.1-1.4
			s1-1.1,1.3-1.6h0.9V15z M7.3,8.6c-0.6-0.2-1-0.5-1.3-0.9C5.6,7.2,5.5,6.8,5.5,6.2c0-0.9,0.3-1.6,0.9-2.2s1.4-0.9,2.5-0.9
			c1,0,1.9,0.3,2.5,0.9c0.6,0.6,0.9,1.3,0.9,2.2c0,0.5-0.1,1-0.4,1.4c-0.3,0.4-0.7,0.7-1.3,0.9c0.7,0.2,1.3,0.6,1.7,1.1
			c0.4,0.5,0.6,1.2,0.6,1.9c0,1-0.4,1.9-1.1,2.5c-0.7,0.7-1.7,1-2.8,1s-2.1-0.3-2.8-1C5.4,13.5,5,12.6,5,11.6c0-0.8,0.2-1.4,0.6-1.9
			C6,9.1,6.5,8.8,7.3,8.6z M7,6.1c0,0.6,0.2,1,0.5,1.4C7.9,7.9,8.3,8,8.9,8c0.6,0,1-0.2,1.4-0.5c0.4-0.4,0.5-0.8,0.5-1.3
			c0-0.5-0.2-1-0.6-1.3C9.9,4.5,9.5,4.3,8.9,4.3c-0.6,0-1,0.2-1.4,0.5C7.2,5.2,7,5.6,7,6.1z M6.5,11.6c0,0.4,0.1,0.8,0.3,1.2
			c0.2,0.4,0.5,0.7,0.9,0.9C8.1,13.9,8.5,14,8.9,14c0.7,0,1.3-0.2,1.7-0.7c0.5-0.4,0.7-1,0.7-1.7c0-0.7-0.2-1.3-0.7-1.7
			c-0.5-0.5-1-0.7-1.7-0.7c-0.7,0-1.2,0.2-1.7,0.7C6.7,10.4,6.5,10.9,6.5,11.6z"/>
	</g>
	<g>
		<line class="st2" x1="73" y1="175" x2="73" y2="31"/>
		<line class="st2" x1="73" y1="175" x2="77.3" y2="175"/>
		<line class="st2" x1="73" y1="108.2" x2="77.3" y2="108.2"/>
		<line class="st2" x1="73" y1="41.5" x2="77.3" y2="41.5"/>
	</g>
	<g transform="translate(68.5332,175)">
		<path class="st3" d="M-13.3-0.3c0-1.4,0.1-2.5,0.4-3.4c0.3-0.9,0.7-1.5,1.3-2c0.6-0.5,1.3-0.7,2.1-0.7c0.6,0,1.2,0.1,1.7,0.4
			c0.5,0.3,0.9,0.6,1.2,1.1c0.3,0.5,0.6,1.1,0.7,1.8c0.2,0.7,0.3,1.6,0.3,2.8C-5.6,1.1-5.8,2.2-6,3c-0.3,0.9-0.7,1.5-1.3,2
			c-0.6,0.5-1.3,0.7-2.1,0.7c-1.1,0-2-0.4-2.7-1.2C-12.9,3.5-13.3,1.9-13.3-0.3z M-11.8-0.3c0,1.9,0.2,3.2,0.7,3.9
			c0.5,0.6,1,1,1.7,1c0.7,0,1.2-0.3,1.7-1s0.7-1.9,0.7-3.9c0-1.9-0.2-3.2-0.7-3.9s-1-1-1.7-1c-0.7,0-1.2,0.3-1.6,0.8
			C-11.6-3.6-11.8-2.3-11.8-0.3z"/>
	</g>
	<g transform="translate(68.5332,108.2257)">
		<path class="st3" d="M-13.3,2.4l1.5-0.1c0.1,0.7,0.4,1.3,0.8,1.7c0.4,0.4,0.9,0.6,1.5,0.6c0.7,0,1.3-0.3,1.8-0.8
			C-7.3,3.2-7,2.5-7,1.6c0-0.8-0.2-1.5-0.7-2C-8.2-0.8-8.8-1-9.5-1c-0.5,0-0.9,0.1-1.3,0.3c-0.4,0.2-0.7,0.5-0.9,0.8l-1.4-0.2
			l1.1-6.1H-6v1.4h-4.7l-0.6,3.2c0.7-0.5,1.5-0.7,2.2-0.7c1,0,1.9,0.4,2.6,1.1c0.7,0.7,1.1,1.6,1.1,2.8c0,1.1-0.3,2-0.9,2.8
			c-0.8,1-1.8,1.4-3.1,1.4c-1.1,0-2-0.3-2.6-0.9C-12.8,4.2-13.2,3.4-13.3,2.4z"/>
	</g>
	<g transform="translate(68.5332,41.4515)">
		<path class="st3" d="M-12.9,5.5h-1.5v-9.2c-0.3,0.3-0.8,0.7-1.4,1c-0.6,0.3-1.1,0.6-1.5,0.7v-1.4c0.8-0.4,1.5-0.8,2.1-1.4
			c0.6-0.5,1-1.1,1.3-1.6h0.9V5.5z M-9.1-0.3c0-1.4,0.1-2.5,0.4-3.4c0.3-0.9,0.7-1.5,1.3-2c0.6-0.5,1.3-0.7,2.1-0.7
			c0.6,0,1.2,0.1,1.7,0.4c0.5,0.3,0.9,0.6,1.2,1.1c0.3,0.5,0.6,1.1,0.7,1.8s0.3,1.6,0.3,2.8c0,1.4-0.1,2.5-0.4,3.4
			c-0.3,0.9-0.7,1.5-1.3,2c-0.6,0.5-1.3,0.7-2.1,0.7c-1.1,0-2-0.4-2.7-1.2C-8.7,3.5-9.1,1.9-9.1-0.3z M-7.6-0.3
			c0,1.9,0.2,3.2,0.7,3.9c0.5,0.6,1,1,1.7,1s1.2-0.3,1.7-1s0.7-1.9,0.7-3.9c0-1.9-0.2-3.2-0.7-3.9s-1-1-1.7-1
			c-0.7,0-1.2,0.3-1.6,0.8C-7.4-3.6-7.6-2.3-7.6-0.3z"/>
	</g>
	<g transform="translate(47.3667,102.9999) rotate(-90)">
		<path class="st3" d="M-51.6-4v-13h4.9c0.9,0,1.5,0,2,0.1c0.6,0.1,1.2,0.3,1.6,0.6c0.4,0.3,0.8,0.7,1,1.3c0.3,0.5,0.4,1.1,0.4,1.8
			c0,1.1-0.4,2-1.1,2.8c-0.7,0.8-2,1.1-3.8,1.1h-3.3V-4H-51.6z M-49.9-10.8h3.4c1.1,0,1.9-0.2,2.4-0.6c0.5-0.4,0.7-1,0.7-1.7
			c0-0.5-0.1-1-0.4-1.4c-0.3-0.4-0.6-0.6-1.1-0.8c-0.3-0.1-0.8-0.1-1.6-0.1h-3.3V-10.8z M-33.6-5.2c-0.6,0.5-1.2,0.9-1.7,1.1
			s-1.1,0.3-1.8,0.3c-1,0-1.8-0.3-2.4-0.8c-0.6-0.5-0.8-1.2-0.8-1.9c0-0.5,0.1-0.9,0.3-1.3c0.2-0.4,0.5-0.7,0.8-0.9
			c0.3-0.2,0.7-0.4,1.1-0.5c0.3-0.1,0.8-0.2,1.4-0.2c1.3-0.2,2.2-0.3,2.8-0.5c0-0.2,0-0.4,0-0.4c0-0.6-0.2-1.1-0.5-1.4
			c-0.4-0.4-1-0.5-1.8-0.5c-0.8,0-1.3,0.1-1.7,0.4s-0.6,0.7-0.8,1.4l-1.6-0.2c0.1-0.7,0.4-1.2,0.7-1.6c0.3-0.4,0.8-0.7,1.4-0.9
			c0.6-0.2,1.3-0.3,2.1-0.3c0.8,0,1.5,0.1,2,0.3c0.5,0.2,0.9,0.4,1.1,0.7c0.2,0.3,0.4,0.6,0.5,1.1c0.1,0.3,0.1,0.8,0.1,1.5v2.1
			c0,1.5,0,2.4,0.1,2.8c0.1,0.4,0.2,0.8,0.4,1.1h-1.7C-33.4-4.3-33.5-4.7-33.6-5.2z M-33.7-8.7c-0.6,0.2-1.4,0.4-2.6,0.6
			C-37-8-37.4-7.9-37.7-7.8c-0.3,0.1-0.5,0.3-0.6,0.5c-0.1,0.2-0.2,0.5-0.2,0.8c0,0.4,0.2,0.8,0.5,1.1c0.3,0.3,0.8,0.4,1.4,0.4
			c0.6,0,1.2-0.1,1.6-0.4c0.5-0.3,0.8-0.6,1.1-1.1c0.2-0.4,0.3-0.9,0.3-1.6V-8.7z M-29.6-4v-13h1.6v13H-29.6z M-25.6-4v-9.4h1.4v1.3
			c0.3-0.5,0.7-0.8,1.2-1.1c0.5-0.3,1-0.4,1.7-0.4c0.7,0,1.3,0.1,1.7,0.4c0.4,0.3,0.8,0.7,0.9,1.2c0.7-1.1,1.7-1.6,2.9-1.6
			c0.9,0,1.7,0.3,2.2,0.8c0.5,0.5,0.8,1.3,0.8,2.4V-4h-1.6v-5.9c0-0.6-0.1-1.1-0.2-1.4c-0.1-0.3-0.3-0.5-0.6-0.7
			c-0.3-0.2-0.6-0.3-1-0.3c-0.7,0-1.2,0.2-1.6,0.7c-0.4,0.4-0.7,1.1-0.7,2.1V-4H-20v-6.1c0-0.7-0.1-1.2-0.4-1.6
			c-0.3-0.4-0.7-0.5-1.3-0.5c-0.4,0-0.9,0.1-1.2,0.4c-0.4,0.2-0.7,0.6-0.8,1c-0.2,0.5-0.3,1.1-0.3,2V-4H-25.6z M-5.4-4v-13h1.6v13
			H-5.4z M-1.4-15.2V-17h1.6v1.8H-1.4z M-1.4-4v-9.4h1.6V-4H-1.4z M3-4v-8.2H1.6v-1.2H3v-1c0-0.6,0.1-1.1,0.2-1.4
			c0.2-0.4,0.4-0.7,0.8-1c0.4-0.3,0.9-0.4,1.6-0.4c0.4,0,0.9,0.1,1.5,0.2l-0.2,1.4c-0.3-0.1-0.6-0.1-0.9-0.1c-0.5,0-0.8,0.1-1,0.3
			c-0.2,0.2-0.3,0.6-0.3,1.2v0.9h1.8v1.2H4.6V-4H3z M11.2-5.4L11.4-4c-0.4,0.1-0.9,0.1-1.2,0.1c-0.6,0-1-0.1-1.3-0.3
			C8.5-4.3,8.3-4.6,8.2-4.9C8.1-5.2,8-5.8,8-6.8v-5.4H6.8v-1.2H8v-2.3l1.6-1v3.3h1.6v1.2H9.6v5.5c0,0.5,0,0.7,0.1,0.9
			s0.1,0.2,0.3,0.3c0.1,0.1,0.3,0.1,0.5,0.1C10.7-5.4,10.9-5.4,11.2-5.4z M20.8-0.2c-0.9-1.1-1.6-2.4-2.2-3.9
			c-0.6-1.5-0.9-3-0.9-4.6c0-1.4,0.2-2.8,0.7-4c0.5-1.5,1.4-3,2.5-4.5H22c-0.7,1.2-1.2,2.1-1.4,2.6c-0.4,0.8-0.6,1.7-0.9,2.6
			c-0.3,1.1-0.4,2.2-0.4,3.3c0,2.8,0.9,5.7,2.6,8.5H20.8z M30-7.4l1.6,0.2c-0.2,1.1-0.6,1.9-1.3,2.5c-0.7,0.6-1.6,0.9-2.6,0.9
			c-1.3,0-2.3-0.4-3.1-1.3c-0.8-0.8-1.2-2-1.2-3.6c0-1,0.2-1.9,0.5-2.7c0.3-0.8,0.8-1.3,1.5-1.7c0.7-0.4,1.4-0.6,2.2-0.6
			c1,0,1.9,0.3,2.5,0.8c0.6,0.5,1.1,1.3,1.2,2.2l-1.6,0.2c-0.1-0.6-0.4-1.1-0.8-1.4c-0.4-0.3-0.8-0.5-1.4-0.5c-0.8,0-1.5,0.3-2,0.9
			C25.2-10.9,25-10,25-8.7c0,1.3,0.2,2.2,0.7,2.8c0.5,0.6,1.1,0.9,1.9,0.9c0.6,0,1.1-0.2,1.6-0.6C29.6-6.1,29.9-6.6,30-7.4z M32.9-4
			v-9.4h1.4v1.3c0.3-0.5,0.7-0.8,1.2-1.1c0.5-0.3,1-0.4,1.7-0.4c0.7,0,1.3,0.1,1.7,0.4c0.4,0.3,0.8,0.7,0.9,1.2
			c0.7-1.1,1.7-1.6,2.9-1.6c0.9,0,1.7,0.3,2.2,0.8c0.5,0.5,0.8,1.3,0.8,2.4V-4h-1.6v-5.9c0-0.6-0.1-1.1-0.2-1.4
			c-0.1-0.3-0.3-0.5-0.6-0.7c-0.3-0.2-0.6-0.3-1-0.3c-0.7,0-1.2,0.2-1.6,0.7c-0.4,0.4-0.7,1.1-0.7,2.1V-4h-1.6v-6.1
			c0-0.7-0.1-1.2-0.4-1.6c-0.3-0.4-0.7-0.5-1.3-0.5c-0.4,0-0.9,0.1-1.2,0.4c-0.4,0.2-0.7,0.6-0.8,1s-0.3,1.1-0.3,2V-4H32.9z
			 M49.1-0.2h-1.1c1.8-2.8,2.6-5.7,2.6-8.5c0-1.1-0.1-2.2-0.4-3.3c-0.2-0.9-0.5-1.7-0.8-2.6c-0.2-0.5-0.7-1.4-1.4-2.7h1.1
			c1.1,1.5,1.9,3,2.5,4.5c0.5,1.3,0.7,2.6,0.7,4c0,1.6-0.3,3.1-0.9,4.6C50.7-2.6,49.9-1.3,49.1-0.2z"/>
	</g>
	<g>
		<path class="st4" d="M72.9,169.3h0.9h2.4h2.6l2.3-0.1l2.6,0.1h2.5h2.7h2.4l2.6-0.1h2.4l2.4,0.1h2.7h2.4l2.5-0.1l2.6-3.1l2.5-16.2
			l2.6-36.4l2.4-40.2l2.5-28.9l2.4-13.3l2.4,4.3l2.5,15.5l2.4,17.1l2.5,16.5l2.5,10.9l2.9,5.2l2.4,1.2l2.5,1.3l2.4,2.1l2.6,0.9
			l2.6,0.7h2.6l2.4-0.1l2.7-12.4l2.4-16.2l2.5-16.5l2.6-2.7l2.4,0.6l2.4,0.9l2.3-0.7l2.3-3.3l2.4-1.2l2.4,2.7l2.4,13.9l2.6,26.1
			l2.5,14.8l2.4-1.5l2.4-2.4l2.4-1.2l2.6-1l2.5,0.1l2.5,0.6l2.5-16.7l2.4-25.6l2.6-7.8l2.7,19.7l2.5,26.5l2.4,16l2.6,12.2l2.5,22.1
			l2.4,14.8l2.6,0.3l2.4,0.1h2.5l2.3,0.1h2.6h2.7h2.4h2.6l2.4,0.1h2.4h2.7h2.4l2.5-0.1l2.3,0.1h2.5h2.5h2.4h2.5h2.3h2.6h2.6h2.3h2.4
			h2.4l2.6-0.1h2.6h2.3h2.3h2.6h2.5h2.4h2.6h2.4h2.5h2.7h2.5h2.4h2.4h2.5h2.6h2.6h2.4h2.5h2.4h2.5h2.4h2.4l2.3-0.1h2.5h2.4h2.6h2.6
			h2.3h2.5h2.6l2.4-0.7l2.4-8.5l2.4-24.6l2.5-40.4l2.5-31.3l2.4-8.3l2.5,16.2l2.4,21.8l2.6,17l2.5,4l2.4-1.2l2.4-4.3l2.3,0.9h2.5
			l2.4-0.3l2.4-2.4l2.6-1.5l2.4-0.6l2.5,1.9l2.4-3.1l2.5-15.7l2.6-19.5l2.4-6.1l2.5-2.8l2.3,0.7l2.5-0.7l2.3-0.3l2.7-0.1l2.3-0.9
			l2.6,1.2l2.5,2.5l2.3,10.9l2.5,28.5l2.3,7.9l2.4-3.1l2.4-2.7l2.6-3.9l2.3-13.6l2.6-14.6l2.4-1.9l2.3,12.4l2.5,22.7l2.4,20.3
			l2.7,23.3l2.4,20.4l2.4,1l2.5,0.7l2.4,0.4l2.3,0.3l2.5,0.1h2.6h2.3l2.6,0.1h2.7h2.3h2.6h2.6l2.3,0.1h2.3h2.3"/>
	</g>
	<g>
		<line class="st5" x1="108.8" y1="175" x2="108.8" y2="41.5"/>
		<line class="st5" x1="188.8" y1="175" x2="188.8" y2="41.5"/>
		<line class="st5" x1="364.8" y1="175" x2="364.8" y2="41.5"/>
		<line class="st5" x1="445.8" y1="175" x2="445.8" y2="41.5"/>
	</g>
	<g>
		<line class="st0" x1="73" y1="374" x2="507" y2="374"/>
		<line class="st0" x1="73" y1="374" x2="73" y2="369.7"/>
		<line class="st0" x1="135" y1="374" x2="135" y2="369.7"/>
		<line class="st0" x1="197" y1="374" x2="197" y2="369.7"/>
		<line class="st0" x1="259" y1="374" x2="259" y2="369.7"/>
		<line class="st0" x1="321" y1="374" x2="321" y2="369.7"/>
		<line class="st0" x1="383" y1="374" x2="383" y2="369.7"/>
		<line class="st0" x1="445" y1="374" x2="445" y2="369.7"/>
		<line class="st0" x1="507" y1="374" x2="507" y2="369.7"/>
		<line class="st0" x1="73" y1="231" x2="73" y2="235.3"/>
		<line class="st0" x1="507" y1="231" x2="507" y2="235.3"/>
	</g>
	<g transform="translate(73,378.4667)">
		<path class="st1" d="M-7.9,15h-1.5V5.8c-0.3,0.3-0.8,0.7-1.4,1c-0.6,0.3-1.1,0.6-1.5,0.7V6.1c0.8-0.4,1.5-0.8,2.1-1.4
			c0.6-0.5,1-1.1,1.3-1.6h0.9V15z M-4.1,9.2c0-1.4,0.1-2.5,0.4-3.4C-3.4,5-3,4.3-2.4,3.8c0.6-0.5,1.3-0.7,2.1-0.7
			c0.6,0,1.2,0.1,1.7,0.4c0.5,0.3,0.9,0.6,1.2,1.1c0.3,0.5,0.6,1.1,0.7,1.8C3.5,7.1,3.6,8,3.6,9.2c0,1.4-0.1,2.5-0.4,3.4
			c-0.3,0.9-0.7,1.5-1.3,2s-1.3,0.7-2.1,0.7c-1.1,0-2-0.4-2.7-1.2C-3.7,13-4.1,11.4-4.1,9.2z M-2.6,9.2c0,1.9,0.2,3.2,0.7,3.9
			c0.5,0.6,1,1,1.7,1s1.2-0.3,1.7-1s0.7-1.9,0.7-3.9c0-1.9-0.2-3.2-0.7-3.9s-1-1-1.7-1c-0.7,0-1.2,0.3-1.6,0.8
			C-2.4,5.9-2.6,7.2-2.6,9.2z M9.7,15v-2.8H4.6v-1.3L10,3.2h1.2v7.7h1.6v1.3h-1.6V15H9.7z M9.7,10.8V5.5L6,10.8H9.7z"/>
	</g>
	<g transform="translate(135,378.4667)">
		<path class="st1" d="M-7.9,15h-1.5V5.8c-0.3,0.3-0.8,0.7-1.4,1c-0.6,0.3-1.1,0.6-1.5,0.7V6.1c0.8-0.4,1.5-0.8,2.1-1.4
			c0.6-0.5,1-1.1,1.3-1.6h0.9V15z M-4.1,9.2c0-1.4,0.1-2.5,0.4-3.4C-3.4,5-3,4.3-2.4,3.8c0.6-0.5,1.3-0.7,2.1-0.7
			c0.6,0,1.2,0.1,1.7,0.4c0.5,0.3,0.9,0.6,1.2,1.1c0.3,0.5,0.6,1.1,0.7,1.8C3.5,7.1,3.6,8,3.6,9.2c0,1.4-0.1,2.5-0.4,3.4
			c-0.3,0.9-0.7,1.5-1.3,2s-1.3,0.7-2.1,0.7c-1.1,0-2-0.4-2.7-1.2C-3.7,13-4.1,11.4-4.1,9.2z M-2.6,9.2c0,1.9,0.2,3.2,0.7,3.9
			c0.5,0.6,1,1,1.7,1s1.2-0.3,1.7-1s0.7-1.9,0.7-3.9c0-1.9-0.2-3.2-0.7-3.9s-1-1-1.7-1c-0.7,0-1.2,0.3-1.6,0.8
			C-2.4,5.9-2.6,7.2-2.6,9.2z M12.6,6.1l-1.4,0.1c-0.1-0.6-0.3-1-0.5-1.2c-0.4-0.4-0.9-0.6-1.5-0.6c-0.5,0-0.9,0.1-1.2,0.4
			C7.4,5.1,7.1,5.5,6.8,6.2C6.6,6.8,6.4,7.7,6.4,8.9C6.8,8.4,7.2,8,7.7,7.7c0.5-0.3,1-0.4,1.6-0.4c1,0,1.8,0.4,2.5,1.1
			c0.7,0.7,1,1.6,1,2.8c0,0.7-0.2,1.4-0.5,2.1c-0.3,0.6-0.8,1.1-1.3,1.5c-0.6,0.3-1.2,0.5-1.9,0.5c-1.2,0-2.2-0.4-3-1.3
			C5.4,13,5,11.5,5,9.5c0-2.3,0.4-3.9,1.3-5C7,3.6,8,3.1,9.2,3.1c0.9,0,1.7,0.3,2.3,0.8C12.1,4.4,12.4,5.2,12.6,6.1z M6.6,11.2
			c0,0.5,0.1,1,0.3,1.4c0.2,0.5,0.5,0.8,0.9,1C8.2,13.9,8.6,14,9.1,14c0.6,0,1.1-0.2,1.6-0.7c0.4-0.5,0.7-1.2,0.7-2
			c0-0.8-0.2-1.5-0.7-1.9c-0.4-0.5-1-0.7-1.6-0.7c-0.7,0-1.2,0.2-1.7,0.7C6.9,9.8,6.6,10.4,6.6,11.2z"/>
	</g>
	<g transform="translate(197,378.4667)">
		<path class="st1" d="M-7.9,15h-1.5V5.8c-0.3,0.3-0.8,0.7-1.4,1c-0.6,0.3-1.1,0.6-1.5,0.7V6.1c0.8-0.4,1.5-0.8,2.1-1.4
			c0.6-0.5,1-1.1,1.3-1.6h0.9V15z M-4.1,9.2c0-1.4,0.1-2.5,0.4-3.4C-3.4,5-3,4.3-2.4,3.8c0.6-0.5,1.3-0.7,2.1-0.7
			c0.6,0,1.2,0.1,1.7,0.4c0.5,0.3,0.9,0.6,1.2,1.1c0.3,0.5,0.6,1.1,0.7,1.8C3.5,7.1,3.6,8,3.6,9.2c0,1.4-0.1,2.5-0.4,3.4
			c-0.3,0.9-0.7,1.5-1.3,2s-1.3,0.7-2.1,0.7c-1.1,0-2-0.4-2.7-1.2C-3.7,13-4.1,11.4-4.1,9.2z M-2.6,9.2c0,1.9,0.2,3.2,0.7,3.9
			c0.5,0.6,1,1,1.7,1s1.2-0.3,1.7-1s0.7-1.9,0.7-3.9c0-1.9-0.2-3.2-0.7-3.9s-1-1-1.7-1c-0.7,0-1.2,0.3-1.6,0.8
			C-2.4,5.9-2.6,7.2-2.6,9.2z M7.3,8.6c-0.6-0.2-1-0.5-1.3-0.9C5.6,7.2,5.5,6.8,5.5,6.2c0-0.9,0.3-1.6,0.9-2.2s1.4-0.9,2.5-0.9
			c1,0,1.9,0.3,2.5,0.9c0.6,0.6,0.9,1.3,0.9,2.2c0,0.5-0.1,1-0.4,1.4c-0.3,0.4-0.7,0.7-1.3,0.9c0.7,0.2,1.3,0.6,1.7,1.1
			c0.4,0.5,0.6,1.2,0.6,1.9c0,1-0.4,1.9-1.1,2.5c-0.7,0.7-1.7,1-2.8,1s-2.1-0.3-2.8-1C5.4,13.5,5,12.6,5,11.6c0-0.8,0.2-1.4,0.6-1.9
			C6,9.1,6.5,8.8,7.3,8.6z M7,6.1c0,0.6,0.2,1,0.5,1.4C7.9,7.9,8.3,8,8.9,8c0.6,0,1-0.2,1.4-0.5c0.4-0.4,0.5-0.8,0.5-1.3
			c0-0.5-0.2-1-0.6-1.3C9.9,4.5,9.5,4.3,8.9,4.3c-0.6,0-1,0.2-1.4,0.5C7.2,5.2,7,5.6,7,6.1z M6.5,11.6c0,0.4,0.1,0.8,0.3,1.2
			c0.2,0.4,0.5,0.7,0.9,0.9C8.1,13.9,8.5,14,8.9,14c0.7,0,1.3-0.2,1.7-0.7c0.5-0.4,0.7-1,0.7-1.7c0-0.7-0.2-1.3-0.7-1.7
			c-0.5-0.5-1-0.7-1.7-0.7c-0.7,0-1.2,0.2-1.7,0.7C6.7,10.4,6.5,10.9,6.5,11.6z"/>
	</g>
	<g transform="translate(259,378.4667)">
		<path class="st1" d="M-7.9,15h-1.5V5.8c-0.3,0.3-0.8,0.7-1.4,1c-0.6,0.3-1.1,0.6-1.5,0.7V6.1c0.8-0.4,1.5-0.8,2.1-1.4
			c0.6-0.5,1-1.1,1.3-1.6h0.9V15z M1.3,15h-1.5V5.8c-0.3,0.3-0.8,0.7-1.4,1C-2.1,7.1-2.6,7.3-3,7.5V6.1c0.8-0.4,1.5-0.8,2.1-1.4
			s1-1.1,1.3-1.6h0.9V15z M5,9.2c0-1.4,0.1-2.5,0.4-3.4c0.3-0.9,0.7-1.5,1.3-2C7.3,3.4,8,3.1,8.9,3.1c0.6,0,1.2,0.1,1.7,0.4
			c0.5,0.3,0.9,0.6,1.2,1.1c0.3,0.5,0.6,1.1,0.7,1.8c0.2,0.7,0.3,1.6,0.3,2.8c0,1.4-0.1,2.5-0.4,3.4c-0.3,0.9-0.7,1.5-1.3,2
			c-0.6,0.5-1.3,0.7-2.1,0.7c-1.1,0-2-0.4-2.7-1.2C5.4,13,5,11.4,5,9.2z M6.5,9.2c0,1.9,0.2,3.2,0.7,3.9c0.5,0.6,1,1,1.7,1
			c0.7,0,1.2-0.3,1.7-1c0.5-0.6,0.7-1.9,0.7-3.9c0-1.9-0.2-3.2-0.7-3.9c-0.5-0.6-1-1-1.7-1c-0.7,0-1.2,0.3-1.6,0.8
			C6.8,5.9,6.5,7.2,6.5,9.2z"/>
	</g>
	<g transform="translate(321,378.4667)">
		<path class="st1" d="M-7.9,15h-1.5V5.8c-0.3,0.3-0.8,0.7-1.4,1c-0.6,0.3-1.1,0.6-1.5,0.7V6.1c0.8-0.4,1.5-0.8,2.1-1.4
			c0.6-0.5,1-1.1,1.3-1.6h0.9V15z M1.3,15h-1.5V5.8c-0.3,0.3-0.8,0.7-1.4,1C-2.1,7.1-2.6,7.3-3,7.5V6.1c0.8-0.4,1.5-0.8,2.1-1.4
			s1-1.1,1.3-1.6h0.9V15z M12.7,13.6V15H4.9c0-0.3,0-0.7,0.2-1c0.2-0.5,0.5-1.1,1-1.6c0.4-0.5,1.1-1.1,1.9-1.8
			c1.3-1.1,2.2-1.9,2.6-2.5c0.5-0.6,0.7-1.2,0.7-1.7c0-0.6-0.2-1.1-0.6-1.5c-0.4-0.4-0.9-0.6-1.6-0.6C8.2,4.3,7.7,4.6,7.3,5
			C6.8,5.4,6.6,6,6.6,6.7L5.1,6.6c0.1-1.1,0.5-2,1.2-2.5C6.9,3.4,7.8,3.1,9,3.1c1.1,0,2,0.3,2.7,0.9c0.7,0.6,1,1.4,1,2.3
			c0,0.5-0.1,0.9-0.3,1.4c-0.2,0.5-0.5,0.9-1,1.4c-0.4,0.5-1.2,1.2-2.2,2.1c-0.9,0.7-1.4,1.2-1.7,1.5c-0.2,0.3-0.5,0.5-0.6,0.8H12.7
			z"/>
	</g>
	<g transform="translate(383,378.4667)">
		<path class="st1" d="M-7.9,15h-1.5V5.8c-0.3,0.3-0.8,0.7-1.4,1c-0.6,0.3-1.1,0.6-1.5,0.7V6.1c0.8-0.4,1.5-0.8,2.1-1.4
			c0.6-0.5,1-1.1,1.3-1.6h0.9V15z M1.3,15h-1.5V5.8c-0.3,0.3-0.8,0.7-1.4,1C-2.1,7.1-2.6,7.3-3,7.5V6.1c0.8-0.4,1.5-0.8,2.1-1.4
			s1-1.1,1.3-1.6h0.9V15z M9.7,15v-2.8H4.6v-1.3L10,3.2h1.2v7.7h1.6v1.3h-1.6V15H9.7z M9.7,10.8V5.5L6,10.8H9.7z"/>
	</g>
	<g transform="translate(445,378.4667)">
		<path class="st1" d="M-7.9,15h-1.5V5.8c-0.3,0.3-0.8,0.7-1.4,1c-0.6,0.3-1.1,0.6-1.5,0.7V6.1c0.8-0.4,1.5-0.8,2.1-1.4
			c0.6-0.5,1-1.1,1.3-1.6h0.9V15z M1.3,15h-1.5V5.8c-0.3,0.3-0.8,0.7-1.4,1C-2.1,7.1-2.6,7.3-3,7.5V6.1c0.8-0.4,1.5-0.8,2.1-1.4
			s1-1.1,1.3-1.6h0.9V15z M12.6,6.1l-1.4,0.1c-0.1-0.6-0.3-1-0.5-1.2c-0.4-0.4-0.9-0.6-1.5-0.6c-0.5,0-0.9,0.1-1.2,0.4
			C7.4,5.1,7.1,5.5,6.8,6.2C6.6,6.8,6.4,7.7,6.4,8.9C6.8,8.4,7.2,8,7.7,7.7c0.5-0.3,1-0.4,1.6-0.4c1,0,1.8,0.4,2.5,1.1
			c0.7,0.7,1,1.6,1,2.8c0,0.7-0.2,1.4-0.5,2.1c-0.3,0.6-0.8,1.1-1.3,1.5c-0.6,0.3-1.2,0.5-1.9,0.5c-1.2,0-2.2-0.4-3-1.3
			C5.4,13,5,11.5,5,9.5c0-2.3,0.4-3.9,1.3-5C7,3.6,8,3.1,9.2,3.1c0.9,0,1.7,0.3,2.3,0.8C12.1,4.4,12.4,5.2,12.6,6.1z M6.6,11.2
			c0,0.5,0.1,1,0.3,1.4c0.2,0.5,0.5,0.8,0.9,1C8.2,13.9,8.6,14,9.1,14c0.6,0,1.1-0.2,1.6-0.7c0.4-0.5,0.7-1.2,0.7-2
			c0-0.8-0.2-1.5-0.7-1.9c-0.4-0.5-1-0.7-1.6-0.7c-0.7,0-1.2,0.2-1.7,0.7C6.9,9.8,6.6,10.4,6.6,11.2z"/>
	</g>
	<g transform="translate(507,378.4667)">
		<path class="st1" d="M-7.9,15h-1.5V5.8c-0.3,0.3-0.8,0.7-1.4,1c-0.6,0.3-1.1,0.6-1.5,0.7V6.1c0.8-0.4,1.5-0.8,2.1-1.4
			c0.6-0.5,1-1.1,1.3-1.6h0.9V15z M1.3,15h-1.5V5.8c-0.3,0.3-0.8,0.7-1.4,1C-2.1,7.1-2.6,7.3-3,7.5V6.1c0.8-0.4,1.5-0.8,2.1-1.4
			s1-1.1,1.3-1.6h0.9V15z M7.3,8.6c-0.6-0.2-1-0.5-1.3-0.9C5.6,7.2,5.5,6.8,5.5,6.2c0-0.9,0.3-1.6,0.9-2.2s1.4-0.9,2.5-0.9
			c1,0,1.9,0.3,2.5,0.9c0.6,0.6,0.9,1.3,0.9,2.2c0,0.5-0.1,1-0.4,1.4c-0.3,0.4-0.7,0.7-1.3,0.9c0.7,0.2,1.3,0.6,1.7,1.1
			c0.4,0.5,0.6,1.2,0.6,1.9c0,1-0.4,1.9-1.1,2.5c-0.7,0.7-1.7,1-2.8,1s-2.1-0.3-2.8-1C5.4,13.5,5,12.6,5,11.6c0-0.8,0.2-1.4,0.6-1.9
			C6,9.1,6.5,8.8,7.3,8.6z M7,6.1c0,0.6,0.2,1,0.5,1.4C7.9,7.9,8.3,8,8.9,8c0.6,0,1-0.2,1.4-0.5c0.4-0.4,0.5-0.8,0.5-1.3
			c0-0.5-0.2-1-0.6-1.3C9.9,4.5,9.5,4.3,8.9,4.3c-0.6,0-1,0.2-1.4,0.5C7.2,5.2,7,5.6,7,6.1z M6.5,11.6c0,0.4,0.1,0.8,0.3,1.2
			c0.2,0.4,0.5,0.7,0.9,0.9C8.1,13.9,8.5,14,8.9,14c0.7,0,1.3-0.2,1.7-0.7c0.5-0.4,0.7-1,0.7-1.7c0-0.7-0.2-1.3-0.7-1.7
			c-0.5-0.5-1-0.7-1.7-0.7c-0.7,0-1.2,0.2-1.7,0.7C6.7,10.4,6.5,10.9,6.5,11.6z"/>
	</g>
	<g>
		<line class="st6" x1="73" y1="374" x2="73" y2="231"/>
		<line class="st6" x1="507" y1="374" x2="507" y2="231"/>
		<line class="st6" x1="73" y1="374" x2="77.3" y2="374"/>
		<line class="st6" x1="73" y1="338.2" x2="77.3" y2="338.2"/>
		<line class="st6" x1="73" y1="302.5" x2="77.3" y2="302.5"/>
		<line class="st6" x1="73" y1="266.8" x2="77.3" y2="266.8"/>
		<line class="st6" x1="73" y1="231" x2="77.3" y2="231"/>
		<line class="st6" x1="507" y1="374" x2="502.7" y2="374"/>
		<line class="st6" x1="507" y1="231" x2="502.7" y2="231"/>
	</g>
	<g transform="translate(68.5332,374)">
		<path class="st7" d="M-9.3-0.3c0-1.4,0.1-2.5,0.4-3.4c0.3-0.9,0.7-1.5,1.3-2C-7-6.1-6.3-6.4-5.5-6.4c0.6,0,1.2,0.1,1.7,0.4
			c0.5,0.3,0.9,0.6,1.2,1.1c0.3,0.5,0.6,1.1,0.7,1.8s0.3,1.6,0.3,2.8C-1.6,1.1-1.8,2.2-2,3c-0.3,0.9-0.7,1.5-1.3,2
			c-0.6,0.5-1.3,0.7-2.1,0.7c-1.1,0-2-0.4-2.7-1.2C-8.9,3.5-9.3,1.9-9.3-0.3z M-7.8-0.3c0,1.9,0.2,3.2,0.7,3.9c0.5,0.6,1,1,1.7,1
			s1.2-0.3,1.7-1c0.5-0.6,0.7-1.9,0.7-3.9c0-1.9-0.2-3.2-0.7-3.9c-0.5-0.6-1-1-1.7-1c-0.7,0-1.2,0.3-1.6,0.8
			C-7.6-3.6-7.8-2.3-7.8-0.3z"/>
	</g>
	<g transform="translate(68.5332,338.25)">
		<path class="st7" d="M-1.7,4.1v1.4h-7.8c0-0.3,0-0.7,0.2-1c0.2-0.5,0.5-1.1,1-1.6c0.4-0.5,1.1-1.1,1.9-1.8
			c1.3-1.1,2.2-1.9,2.6-2.5C-3.4-2-3.2-2.6-3.2-3.1c0-0.6-0.2-1.1-0.6-1.5C-4.2-5-4.8-5.2-5.4-5.2c-0.7,0-1.3,0.2-1.7,0.6
			c-0.4,0.4-0.6,1-0.6,1.7l-1.5-0.2c0.1-1.1,0.5-2,1.2-2.5c0.7-0.6,1.6-0.9,2.7-0.9c1.1,0,2,0.3,2.7,0.9c0.7,0.6,1,1.4,1,2.3
			c0,0.5-0.1,0.9-0.3,1.4c-0.2,0.5-0.5,0.9-1,1.4C-3.4,0.3-4.2,1-5.2,1.8c-0.9,0.7-1.4,1.2-1.7,1.5c-0.2,0.3-0.5,0.5-0.6,0.8H-1.7z"
			/>
	</g>
	<g transform="translate(68.5332,302.5)">
		<path class="st7" d="M-4.7,5.5V2.7h-5.1V1.3l5.4-7.7h1.2v7.7h1.6v1.3h-1.6v2.8H-4.7z M-4.7,1.3V-4l-3.7,5.3H-4.7z"/>
	</g>
	<g transform="translate(68.5332,266.75)">
		<path class="st7" d="M-1.8-3.4l-1.4,0.1c-0.1-0.6-0.3-1-0.5-1.2C-4.2-5-4.7-5.2-5.2-5.2c-0.5,0-0.9,0.1-1.2,0.4
			C-6.9-4.4-7.3-4-7.5-3.3c-0.3,0.6-0.4,1.5-0.4,2.7c0.3-0.5,0.8-0.9,1.3-1.2c0.5-0.3,1-0.4,1.6-0.4c1,0,1.8,0.4,2.5,1.1
			c0.7,0.7,1,1.6,1,2.8c0,0.7-0.2,1.4-0.5,2.1s-0.8,1.1-1.3,1.5c-0.6,0.3-1.2,0.5-1.9,0.5c-1.2,0-2.2-0.4-3-1.3C-9,3.5-9.4,2-9.4,0
			C-9.4-2.3-9-4-8.1-5c0.7-0.9,1.7-1.4,3-1.4c0.9,0,1.7,0.3,2.3,0.8C-2.3-5.1-1.9-4.3-1.8-3.4z M-7.7,1.7c0,0.5,0.1,1,0.3,1.4
			c0.2,0.5,0.5,0.8,0.9,1s0.8,0.4,1.2,0.4c0.6,0,1.1-0.2,1.6-0.7c0.4-0.5,0.7-1.2,0.7-2c0-0.8-0.2-1.5-0.7-1.9
			c-0.4-0.5-1-0.7-1.6-0.7C-6-0.9-6.6-0.6-7-0.2S-7.7,0.9-7.7,1.7z"/>
	</g>
	<g transform="translate(68.5332,231)">
		<path class="st7" d="M-7.1-0.9c-0.6-0.2-1-0.5-1.3-0.9s-0.4-0.9-0.4-1.5c0-0.9,0.3-1.6,0.9-2.2c0.6-0.6,1.4-0.9,2.5-0.9
			c1,0,1.9,0.3,2.5,0.9C-2.3-4.9-2-4.1-2-3.3c0,0.5-0.1,1-0.4,1.4c-0.3,0.4-0.7,0.7-1.3,0.9C-3-0.7-2.5-0.3-2.1,0.2
			c0.4,0.5,0.6,1.2,0.6,1.9c0,1-0.4,1.9-1.1,2.5c-0.7,0.7-1.7,1-2.8,1c-1.2,0-2.1-0.3-2.8-1C-9,4-9.3,3.1-9.3,2.1
			c0-0.8,0.2-1.4,0.6-1.9C-8.4-0.4-7.8-0.7-7.1-0.9z M-7.4-3.4c0,0.6,0.2,1,0.5,1.4C-6.5-1.6-6-1.5-5.4-1.5c0.6,0,1-0.2,1.4-0.5
			c0.4-0.4,0.5-0.8,0.5-1.3c0-0.5-0.2-1-0.6-1.3C-4.4-5-4.9-5.2-5.4-5.2c-0.6,0-1,0.2-1.4,0.5C-7.2-4.3-7.4-3.9-7.4-3.4z M-7.8,2.1
			c0,0.4,0.1,0.8,0.3,1.2C-7.4,3.7-7.1,4-6.7,4.2c0.4,0.2,0.8,0.3,1.2,0.3c0.7,0,1.3-0.2,1.7-0.7C-3.3,3.4-3,2.8-3,2.1
			c0-0.7-0.2-1.3-0.7-1.7s-1-0.7-1.7-0.7c-0.7,0-1.2,0.2-1.7,0.7C-7.6,0.9-7.8,1.4-7.8,2.1z"/>
	</g>
	<g transform="translate(56.3666,302.4999) rotate(-90)">
		<path class="st7" d="M-78-4v-13h8.8v1.5h-7v4h6.1v1.5h-6.1V-4H-78z M-67.8-8.7c0-1.7,0.5-3,1.5-3.9c0.8-0.7,1.8-1,3-1
			c1.3,0,2.4,0.4,3.2,1.3c0.8,0.8,1.2,2,1.2,3.5c0,1.2-0.2,2.2-0.5,2.9c-0.4,0.7-0.9,1.2-1.6,1.6c-0.7,0.4-1.5,0.6-2.3,0.6
			c-1.3,0-2.4-0.4-3.2-1.3C-67.4-5.9-67.8-7.1-67.8-8.7z M-66.2-8.7c0,1.2,0.3,2.1,0.8,2.7c0.5,0.6,1.2,0.9,2,0.9
			c0.8,0,1.5-0.3,2-0.9c0.5-0.6,0.8-1.5,0.8-2.8c0-1.2-0.3-2-0.8-2.6c-0.5-0.6-1.2-0.9-2-0.9c-0.8,0-1.5,0.3-2,0.9
			C-65.9-10.8-66.2-9.9-66.2-8.7z M-57.1-4v-9.4h1.4v1.4c0.4-0.7,0.7-1.1,1-1.3c0.3-0.2,0.7-0.3,1-0.3c0.5,0,1.1,0.2,1.6,0.5
			l-0.5,1.5c-0.4-0.2-0.8-0.3-1.2-0.3c-0.3,0-0.7,0.1-0.9,0.3c-0.3,0.2-0.5,0.5-0.6,0.9c-0.2,0.6-0.3,1.2-0.3,1.9V-4H-57.1z
			 M-44.9-7.4l1.6,0.2c-0.2,1.1-0.6,1.9-1.3,2.5c-0.7,0.6-1.6,0.9-2.6,0.9c-1.3,0-2.3-0.4-3.1-1.3c-0.8-0.8-1.2-2-1.2-3.6
			c0-1,0.2-1.9,0.5-2.7c0.3-0.8,0.8-1.3,1.5-1.7c0.7-0.4,1.4-0.6,2.2-0.6c1,0,1.9,0.3,2.5,0.8c0.6,0.5,1.1,1.3,1.2,2.2l-1.6,0.2
			c-0.1-0.6-0.4-1.1-0.8-1.4c-0.4-0.3-0.8-0.5-1.4-0.5c-0.8,0-1.5,0.3-2,0.9c-0.5,0.6-0.8,1.5-0.8,2.7c0,1.3,0.2,2.2,0.7,2.8
			c0.5,0.6,1.1,0.9,1.9,0.9c0.6,0,1.1-0.2,1.6-0.6C-45.3-6.1-45-6.6-44.9-7.4z M-35.6-7l1.6,0.2c-0.3,1-0.7,1.7-1.4,2.2
			c-0.7,0.5-1.6,0.8-2.7,0.8c-1.4,0-2.5-0.4-3.3-1.3c-0.8-0.8-1.2-2-1.2-3.6c0-1.6,0.4-2.8,1.2-3.7c0.8-0.9,1.9-1.3,3.2-1.3
			c1.3,0,2.3,0.4,3.1,1.3c0.8,0.9,1.2,2.1,1.2,3.6c0,0.1,0,0.2,0,0.4h-7c0.1,1,0.4,1.8,0.9,2.4c0.5,0.5,1.2,0.8,2,0.8
			c0.6,0,1.1-0.2,1.5-0.5C-36.1-5.9-35.8-6.4-35.6-7z M-40.8-9.6h5.3c-0.1-0.8-0.3-1.4-0.6-1.8c-0.5-0.6-1.2-0.9-2-0.9
			c-0.7,0-1.3,0.2-1.8,0.7C-40.5-11.1-40.7-10.4-40.8-9.6z M-27.5-6.8l1.6-0.2c0.1,0.6,0.3,1.1,0.7,1.5c0.4,0.3,1,0.5,1.7,0.5
			c0.7,0,1.3-0.1,1.6-0.4c0.4-0.3,0.5-0.6,0.5-1.1c0-0.4-0.2-0.6-0.5-0.9C-22-7.6-22.6-7.8-23.4-8c-1.2-0.3-2-0.6-2.4-0.8
			c-0.5-0.2-0.8-0.5-1-0.9c-0.2-0.4-0.4-0.8-0.4-1.3c0-0.4,0.1-0.8,0.3-1.2c0.2-0.4,0.5-0.7,0.8-0.9c0.2-0.2,0.6-0.3,1-0.5
			c0.4-0.1,0.9-0.2,1.4-0.2c0.7,0,1.4,0.1,1.9,0.3c0.6,0.2,1,0.5,1.2,0.9c0.3,0.4,0.4,0.8,0.5,1.5l-1.6,0.2
			c-0.1-0.5-0.3-0.9-0.6-1.1c-0.3-0.3-0.8-0.4-1.4-0.4c-0.7,0-1.3,0.1-1.6,0.4c-0.3,0.2-0.5,0.5-0.5,0.9c0,0.2,0.1,0.4,0.2,0.6
			c0.1,0.2,0.3,0.3,0.6,0.4c0.2,0.1,0.6,0.2,1.4,0.4c1.1,0.3,1.9,0.5,2.4,0.7c0.4,0.2,0.8,0.5,1.1,0.8c0.3,0.4,0.4,0.8,0.4,1.4
			c0,0.5-0.2,1-0.5,1.5c-0.3,0.5-0.8,0.8-1.3,1.1c-0.6,0.3-1.2,0.4-2,0.4c-1.2,0-2.2-0.3-2.8-0.8C-26.9-5.1-27.3-5.8-27.5-6.8z
			 M-11.3-7l1.6,0.2c-0.3,1-0.7,1.7-1.4,2.2c-0.7,0.5-1.6,0.8-2.7,0.8c-1.4,0-2.5-0.4-3.3-1.3c-0.8-0.8-1.2-2-1.2-3.6
			c0-1.6,0.4-2.8,1.2-3.7c0.8-0.9,1.9-1.3,3.2-1.3c1.3,0,2.3,0.4,3.1,1.3c0.8,0.9,1.2,2.1,1.2,3.6c0,0.1,0,0.2,0,0.4h-7
			c0.1,1,0.4,1.8,0.9,2.4c0.5,0.5,1.2,0.8,2,0.8c0.6,0,1.1-0.2,1.5-0.5C-11.9-5.9-11.6-6.4-11.3-7z M-16.6-9.6h5.3
			c-0.1-0.8-0.3-1.4-0.6-1.8c-0.5-0.6-1.2-0.9-2-0.9c-0.7,0-1.3,0.2-1.8,0.7C-16.3-11.1-16.5-10.4-16.6-9.6z M-7.7-4v-9.4h1.4v1.3
			c0.7-1,1.7-1.6,3-1.6c0.6,0,1.1,0.1,1.6,0.3c0.5,0.2,0.8,0.5,1.1,0.8c0.2,0.3,0.4,0.7,0.5,1.2C-0.1-11,0-10.5,0-9.8V-4h-1.6v-5.7
			c0-0.6-0.1-1.1-0.2-1.5s-0.3-0.6-0.7-0.8c-0.3-0.2-0.7-0.3-1.1-0.3c-0.7,0-1.3,0.2-1.8,0.6c-0.5,0.4-0.7,1.2-0.7,2.5V-4H-7.7z
			 M1.8-6.8l1.6-0.2c0.1,0.6,0.3,1.1,0.7,1.5c0.4,0.3,1,0.5,1.7,0.5c0.7,0,1.3-0.1,1.6-0.4c0.4-0.3,0.5-0.6,0.5-1.1
			c0-0.4-0.2-0.6-0.5-0.9C7.2-7.6,6.7-7.8,5.8-8c-1.2-0.3-2-0.6-2.4-0.8C3-9,2.6-9.3,2.4-9.6S2-10.5,2-10.9c0-0.4,0.1-0.8,0.3-1.2
			c0.2-0.4,0.5-0.7,0.8-0.9c0.2-0.2,0.6-0.3,1-0.5c0.4-0.1,0.9-0.2,1.4-0.2c0.7,0,1.4,0.1,1.9,0.3c0.6,0.2,1,0.5,1.2,0.9
			c0.3,0.4,0.4,0.8,0.5,1.5l-1.6,0.2c-0.1-0.5-0.3-0.9-0.6-1.1c-0.3-0.3-0.8-0.4-1.4-0.4c-0.7,0-1.3,0.1-1.6,0.4
			c-0.3,0.2-0.5,0.5-0.5,0.9c0,0.2,0.1,0.4,0.2,0.6c0.1,0.2,0.3,0.3,0.6,0.4C4.5-10.1,5-9.9,5.8-9.7C6.9-9.4,7.7-9.2,8.1-9
			c0.4,0.2,0.8,0.5,1.1,0.8c0.3,0.4,0.4,0.8,0.4,1.4c0,0.5-0.2,1-0.5,1.5C8.8-4.8,8.4-4.4,7.8-4.2s-1.2,0.4-2,0.4
			C4.6-3.8,3.6-4,3-4.5C2.3-5.1,1.9-5.8,1.8-6.8z M10.9-8.7c0-1.7,0.5-3,1.5-3.9c0.8-0.7,1.8-1,3-1c1.3,0,2.4,0.4,3.2,1.3
			c0.8,0.8,1.2,2,1.2,3.5c0,1.2-0.2,2.2-0.5,2.9c-0.4,0.7-0.9,1.2-1.6,1.6c-0.7,0.4-1.5,0.6-2.3,0.6c-1.3,0-2.4-0.4-3.2-1.3
			C11.3-5.9,10.9-7.1,10.9-8.7z M12.5-8.7c0,1.2,0.3,2.1,0.8,2.7c0.5,0.6,1.2,0.9,2,0.9c0.8,0,1.5-0.3,2-0.9
			c0.5-0.6,0.8-1.5,0.8-2.8c0-1.2-0.3-2-0.8-2.6c-0.5-0.6-1.2-0.9-2-0.9c-0.8,0-1.5,0.3-2,0.9C12.8-10.8,12.5-9.9,12.5-8.7z M21.5-4
			v-9.4H23v1.4c0.4-0.7,0.7-1.1,1-1.3c0.3-0.2,0.7-0.3,1-0.3c0.5,0,1.1,0.2,1.6,0.5l-0.5,1.5c-0.4-0.2-0.8-0.3-1.2-0.3
			c-0.3,0-0.7,0.1-0.9,0.3c-0.3,0.2-0.5,0.5-0.6,0.9c-0.2,0.6-0.3,1.2-0.3,1.9V-4H21.5z M35.7-0.2c-0.9-1.1-1.6-2.4-2.2-3.9
			c-0.6-1.5-0.9-3-0.9-4.6c0-1.4,0.2-2.8,0.7-4c0.5-1.5,1.4-3,2.5-4.5h1.1c-0.7,1.2-1.2,2.1-1.4,2.6c-0.4,0.8-0.6,1.7-0.9,2.6
			c-0.3,1.1-0.4,2.2-0.4,3.3c0,2.8,0.9,5.7,2.6,8.5H35.7z M44.8-5.2c-0.6,0.5-1.2,0.9-1.7,1.1c-0.5,0.2-1.1,0.3-1.8,0.3
			c-1,0-1.8-0.3-2.4-0.8c-0.6-0.5-0.8-1.2-0.8-1.9c0-0.5,0.1-0.9,0.3-1.3c0.2-0.4,0.5-0.7,0.8-0.9c0.3-0.2,0.7-0.4,1.1-0.5
			c0.3-0.1,0.8-0.2,1.4-0.2c1.3-0.2,2.2-0.3,2.8-0.5c0-0.2,0-0.4,0-0.4c0-0.6-0.2-1.1-0.5-1.4c-0.4-0.4-1-0.5-1.8-0.5
			c-0.8,0-1.3,0.1-1.7,0.4s-0.6,0.7-0.8,1.4l-1.6-0.2c0.1-0.7,0.4-1.2,0.7-1.6c0.3-0.4,0.8-0.7,1.4-0.9c0.6-0.2,1.3-0.3,2.1-0.3
			c0.8,0,1.5,0.1,2,0.3c0.5,0.2,0.9,0.4,1.1,0.7c0.2,0.3,0.4,0.6,0.5,1.1c0.1,0.3,0.1,0.8,0.1,1.5v2.1c0,1.5,0,2.4,0.1,2.8
			c0.1,0.4,0.2,0.8,0.4,1.1h-1.7C45-4.3,44.9-4.7,44.8-5.2z M44.7-8.7c-0.6,0.2-1.4,0.4-2.6,0.6C41.4-8,41-7.9,40.7-7.8
			c-0.3,0.1-0.5,0.3-0.6,0.5c-0.1,0.2-0.2,0.5-0.2,0.8c0,0.4,0.2,0.8,0.5,1.1S41.1-5,41.8-5c0.6,0,1.2-0.1,1.6-0.4
			c0.5-0.3,0.8-0.6,1.1-1.1c0.2-0.4,0.3-0.9,0.3-1.6V-8.7z M49.2-4v-1.8h1.8V-4H49.2z M65-4v-1.4c-0.7,1.1-1.7,1.6-3,1.6
			c-0.6,0-1.1-0.1-1.6-0.3c-0.5-0.2-0.8-0.5-1.1-0.8c-0.2-0.3-0.4-0.7-0.5-1.2c-0.1-0.3-0.1-0.8-0.1-1.5v-5.8h1.6v5.2
			c0,0.8,0,1.4,0.1,1.7c0.1,0.4,0.3,0.7,0.6,1c0.3,0.2,0.7,0.4,1.2,0.4c0.5,0,0.9-0.1,1.3-0.4c0.4-0.2,0.7-0.6,0.9-1
			c0.2-0.4,0.3-1,0.3-1.8v-5h1.6V-4H65z M69.4-4v-1.8h1.8V-4H69.4z M75.1-0.2h-1.1c1.8-2.8,2.6-5.7,2.6-8.5c0-1.1-0.1-2.2-0.4-3.3
			c-0.2-0.9-0.5-1.7-0.8-2.6c-0.2-0.5-0.7-1.4-1.4-2.7h1.1c1.1,1.5,1.9,3,2.5,4.5c0.5,1.3,0.7,2.6,0.7,4c0,1.6-0.3,3.1-0.9,4.6
			C76.7-2.6,75.9-1.3,75.1-0.2z"/>
	</g>
	<g>
		<path class="st8" d="M72.9,372l0.3,0.1l0.6-0.5l0.6-0.2l0.6,0.4l0.5,0.4l0.6-0.4h0.6l0.6-0.2l0.6,0.4l0.6,0.4l0.6-0.5l0.6-0.4
			l0.6,0.4l0.6,0.4l0.6-0.2l0.6-0.4l0.6-0.2l0.6,0.4l0.6,0.4l0.6-0.2l0.6-0.2l0.5-0.2l0.6,0.4l0.6,0.2l0.6-0.2l0.6-0.5l0.6,0.2
			l0.6,0.2l0.6,0.2l0.6-0.4l0.7-0.4l0.6,0.5h0.6l0.6,0.2l0.6-0.2h0.6l0.7,0.4h0.6l0.5-0.4l0.6-0.2l0.6,0.2l0.6,0.4l0.7-0.2l0.6-0.4
			l0.6-0.2l0.7,0.5l0.6,0.2l0.6-0.2l0.6-0.4h0.6l0.6,0.4h0.6l0.6-0.4h0.7l0.6,0.2l0.5,0.4l0.6-0.2l0.6-0.4h0.6l0.6,0.4l0.6,0.2
			l0.6-0.2l0.6-0.4l0.6-0.2l0.6,0.5l0.6-0.2l0.6,0.2l0.6-0.5l0.7,0.2l0.6,0.4h0.6l0.6-0.7l0.5,0.2l0.6,0.5l0.6,0.2l0.6-0.4h0.6
			l0.6-0.2l0.6,0.4l0.6,0.2l0.6-0.4l0.6-0.2h0.6l0.6,0.4h0.6l0.6-0.2l0.6-0.4l0.6,0.2l0.6,0.5l0.7-0.4l0.5-0.2h0.6l0.6,0.4l0.6,0.2
			l0.6-0.4l0.6-0.4l0.6,0.4l0.6,0.4h0.6l0.6-0.2l0.6-0.4l0.6-0.7l0.6,1.3l0.6,0.9l0.6-1.1l0.6-0.2h0.7l0.5,0.7h0.6l0.6,0.4l0.6-0.5
			l0.6,0.7h0.6l0.6-0.5l0.6-0.5l0.6,0.2l0.6,0.2l0.6-0.5l0.6-0.9l0.6-0.9l0.6-1.8l0.7-0.9l0.6-3.2l0.6-5l0.6-2.7l0.7-1.1l0.6-2
			l0.7-3.2l0.6-5.9l0.5,1.4l0.6-3.4l0.6-1.1l0.6-6.3l0.6-2.1l0.6-5.2l0.6-7.9l0.6-1.4l0.6-1.8l0.6-3.8l0.6-23.1l0.6-2.7l0.6,3.4
			l0.6,1.4l0.6,2.5l0.6-0.4l0.6,0.2l0.6,0.4l0.6-0.4l0.6-3l0.6-1.3l0.5-2.3l0.6,0.2l0.6,1.4l0.6-0.2l0.6,0.2l0.6-2l0.6,0.2l0.6-0.4
			l0.6-0.2l0.7-1.1l0.6,0.2l0.6-1.1l0.6,0.4h0.6l0.6,0.5l0.6,0.7l0.6,31.6l0.6,8.2l0.6,4.6l0.6,3.6l0.6,7.2l0.6-2.5l0.5,4.8l0.6-1.1
			l0.6-1.3l0.6-1.4l0.6,0.4l0.6-2.7l0.6,7l0.6-5l0.6-1.6l0.6-3.6l0.7,4.5l0.6,2.5l0.6-1.3l0.6,0.2l0.6,0.2l0.6-1.1l0.6-1.1h0.6
			l0.6-0.4h0.7l0.6-0.2l0.5,0.4l0.6,0.7l0.6,1.1l0.6,2.1l0.7,3.9l0.6,4.1l0.7,10.5l0.6,4.5l0.6,6.3l0.6,0.7l0.6,0.4l0.6,0.4l0.6,0.2
			l0.6-0.5l0.5,0.2l0.7,0.7l0.6-0.4l0.7-0.7l0.6,0.2l0.6-0.2l0.6,0.7h0.6l0.6-0.5l0.6-0.2h0.6l0.6,0.4l0.6-0.2l0.6-0.7l0.6-0.2
			l0.6,0.9l0.6-0.4l0.5-0.4l0.6-0.4l0.6,0.2l0.6,0.5l0.6-0.5h0.6l0.6-0.4l0.6,0.5h0.6h0.6l0.6-0.5l0.6,0.4l0.6,1.1l0.6,0.4l0.6-1.1
			l0.6,0.5l0.6-0.4l0.5-0.2l0.6,0.4l0.6,0.2l0.6-0.2l0.6,0.4l0.6,0.2l0.6-0.5h0.6l0.6,0.2l0.6,0.2l0.6-0.5h0.7l0.6-0.2l0.6,0.2
			l0.6,0.5l0.7-0.4l0.6-0.2h0.5l0.6,0.4l0.6-0.2l0.6-0.2h0.6l0.7,0.2l0.6,0.4l0.6-0.2l0.6-0.5l0.6-0.2l0.6,0.4l0.6,0.4h0.6l0.6-0.4
			l0.6-0.2l0.6,0.4l0.6,0.2l0.5-0.2l0.6-0.4h0.6l0.6,0.5l0.6,0.2l0.7-0.4l0.6-0.4l0.6,0.4h0.6h0.6l0.6-0.2h0.6l0.6,0.2h0.6h0.6
			l0.6-0.2h0.6l0.5,0.5l0.6-0.2l0.6-0.4l0.6-0.4l0.6,0.4l0.6,0.4h0.6l0.6-0.4h0.6l0.6,0.2l0.6,0.2l0.6-0.2l0.6-0.4l0.6,0.4l0.6,0.4
			l0.6-0.2l0.6-0.2l0.5-0.5l0.6,0.7l0.6,0.2l0.6-0.2l0.6-0.2h0.6h0.6l0.6,0.2h0.6l0.6-0.2l0.6-0.2l0.6,0.4l0.6-0.2l0.6-0.2h0.6
			l0.6,0.2l0.6,0.4l0.5-0.4l0.6-0.2l0.7-0.2l0.6,0.2l0.6,0.2l0.6-0.2l0.6-0.4l0.6,0.2l0.6,0.2l0.6,0.2l0.6-0.2l0.6-0.4l0.6,0.4
			l0.6,0.4l0.6-0.2h0.6l0.6-0.5l0.6,0.5h0.5l0.6-0.4h0.6h0.7l0.6,0.2l0.6-0.2h0.6l0.6-0.2l0.6,0.2l0.6,0.2h0.6l0.6-0.4l0.6-0.2
			l0.6,0.5l0.6,0.2l0.6-0.4l0.6-0.2l0.5,0.2l0.6,0.4l0.6-0.2l0.6-0.4l0.6-0.2l0.6,0.4l0.6,0.4l0.6-0.4l0.6-0.2l0.6-0.2l0.6,0.4
			l0.6,0.2l0.6-0.2l0.6-0.2h0.6l0.6,0.4l0.6,0.2l0.5-0.5h0.7l0.6,0.2l0.6,0.4h0.6l0.6-0.4h0.6l0.6,0.2l0.6,0.2l0.7-0.4l0.6-0.2
			l0.6,0.2l0.6,0.5l0.6-0.4l0.6-0.2l0.6-0.2l0.6,0.2l0.5,0.4l0.6-0.2h0.6l0.6-0.2l0.6,0.2l0.6,0.4l0.6-0.4l0.6-0.2l0.6,0.2l0.6,0.4
			l0.6-0.5l0.6-0.2h0.6l0.6,0.4l0.6,0.2l0.6-0.2h0.6h0.5l0.6,0.2h0.6h0.6l0.6-0.4l0.6,0.2l0.6,0.2h0.7h0.6l0.7-0.4l0.6,0.4l0.6,0.2
			l0.6-0.4l0.6-0.4l0.6-0.2l0.6,0.5l0.7-0.2h0.5l0.6-0.4l0.6,0.2l0.6,0.4h0.6l0.6-0.2l0.6-0.2l0.6,0.2l0.6,0.2l0.7,0.2l0.6-0.7h0.6
			l0.7,0.4l0.6,0.2l0.6-0.2l0.6-0.2h0.6l0.5,0.5l0.6-0.2l0.6-0.5l0.6,0.2l0.6,0.2l0.6,0.4l0.6-0.2l0.6-0.2l0.6-0.4l0.6,0.5l0.6,0.2
			l0.6-0.2l0.6-0.2h0.6l0.6,0.5l0.6-0.2l0.7-0.2l0.5-0.4l0.6,0.4h0.6l0.6-0.4h0.6l0.6,0.4l0.6,0.2l0.6,0.2l0.6-0.2l0.7-0.4h0.6
			l0.7,0.5l0.6-0.2h0.7l0.6-0.5l0.6,0.4l0.6,0.4h0.5l0.6-0.5h0.6l0.6,0.4h0.6h0.6l0.6-0.4h0.6l0.6,0.5h0.6l0.6-0.4l0.6-0.4l0.6,0.4
			l0.6,0.2h0.6l0.6-0.5h0.6l0.5,0.4l0.6,0.4l0.6-0.5l0.6-0.2l0.6,0.2l0.6,0.2l0.6,0.5l0.6-0.4l0.6-0.4l0.7,0.4l0.6,0.9l0.7-0.7
			l0.6,0.2l0.6-0.5l0.6,0.2h0.6l0.6-0.4l0.5,0.2h0.6l0.6,0.4h0.6l0.6-0.4l0.6-0.4l0.6,0.2l0.7,0.2l0.6-0.9l0.6-1.1l0.6-0.5l0.7-1.1
			l0.6-6.3l0.6-2.9l0.6-2.7l0.6-4.1l0.6-2.5l0.6-0.2l0.6-4.5l0.7-0.2l0.6,0.2l0.6-6.1l0.6-2l0.6-3.8l0.5,2l0.6-2l0.7-5l0.6-8.6
			l0.6-12.9h0.6l0.6,0.2l0.6-2.3l0.6,0.5l0.6-2.1l0.6-0.2l0.6-1.8h0.6l0.7-1.4l0.6-4.6l0.6,0.7l0.6-3.4l0.6-2.7l0.6-3l0.6-0.4
			l0.6-1.6l0.5-1.1l0.6-2.9l0.6-1.3l0.6-1.4l0.6,1.8l0.6-0.7l0.6,0.7l0.6-2.7l0.6-0.4l0.6-1.3l0.6,0.2l0.6-1.4l0.6,1.6l0.6,3.8
			l0.6,3.2l0.6,3.9l0.6,11.6l0.7,26.1l0.6,8.2l0.7,7l0.6,2l0.5,5.5l0.6,5l0.7,4.6l0.6-1.6l0.6-8.8l0.6-0.5l0.6,6.6l0.7-3.6l0.6,3.8
			l0.6,0.9l0.6,1.4l0.6-0.7l0.6,5l0.6,6.8l0.6,3.2l0.5,2.3l0.6,0.7h0.6l0.6-0.2l0.6,0.2l0.6-0.4l0.7,0.2l0.6-0.4l0.6,0.5l0.6,0.2
			l0.6-0.2l0.6-0.2l0.6-0.7l0.6,1.3l0.6,0.4l0.6-0.5h0.6l0.5-0.9l0.6,0.5l0.7,0.2h0.6h0.6l0.6,0.2l0.6,0.7l0.6-0.4l0.6-0.2l0.6-0.4
			l0.6,0.2l0.6,0.5l0.6-0.4l0.6-0.4l0.6-0.4l0.6,0.4l0.6,0.4l0.5-0.9h0.6h0.6l0.6,0.2l0.6,0.2l0.6-0.9l0.6,0.2l0.6,0.2l0.6-0.2
			l0.6,0.7l0.6-0.7l0.6,0.4l0.6,0.4l0.6,0.2h0.6l0.6-0.4l0.6-0.2l0.5,0.2l0.6,0.4l0.6-0.5l0.6-0.4l0.6,0.2l0.6,0.5l0.6-0.4l0.6-0.2
			h0.6l0.6,0.4l0.6,0.2l0.6-0.2l0.6-0.4l0.6,0.2l0.6,0.2h0.6l0.6-0.4l0.5-0.2l0.6,0.2l0.6,0.4h0.6l0.6-0.7l0.6,0.4l0.6,0.2h0.6
			l0.6-0.2l0.6-0.2l0.7,0.2l0.6,0.4h0.6l0.6-0.5l0.6,0.2l0.7,0.2l0.6,0.2l0.5,0.2l0.6-0.5l0.6-0.2l0.6,0.5h0.6l0.6-0.2l0.6-0.4
			l0.6,0.4l0.7,0.4l0.6-0.2l0.6-0.5l0.6,0.2h0.1"/>
	</g>
	<g>
		<line class="st5" x1="108.8" y1="374" x2="108.8" y2="199.1"/>
		<line class="st5" x1="188.8" y1="374" x2="188.8" y2="199.1"/>
		<line class="st5" x1="364.8" y1="374" x2="364.8" y2="199.1"/>
		<line class="st5" x1="445.8" y1="374" x2="445.8" y2="199.1"/>
	</g>
	<g>
		<line class="st9" x1="507" y1="374" x2="507" y2="231"/>
		<line class="st9" x1="507" y1="374" x2="502.7" y2="374"/>
		<line class="st9" x1="507" y1="326.3" x2="502.7" y2="326.3"/>
		<line class="st9" x1="507" y1="278.7" x2="502.7" y2="278.7"/>
		<line class="st9" x1="507" y1="231" x2="502.7" y2="231"/>
	</g>
	<g transform="translate(511.0888,374)">
		<path class="st10" d="M0.7-0.1c0-1.4,0.1-2.4,0.4-3.3c0.3-0.8,0.7-1.5,1.2-1.9C2.9-5.8,3.6-6,4.4-6C5-6,5.6-5.9,6-5.6
			C6.5-5.4,6.9-5,7.2-4.6c0.3,0.5,0.5,1,0.7,1.7C8-2.2,8.1-1.3,8.1-0.1c0,1.3-0.1,2.4-0.4,3.3C7.4,3.9,7,4.6,6.5,5
			C5.9,5.5,5.2,5.7,4.4,5.7c-1.1,0-2-0.4-2.6-1.2C1,3.6,0.7,2,0.7-0.1z M2.1-0.1c0,1.9,0.2,3.1,0.7,3.8c0.4,0.6,1,0.9,1.6,0.9
			C5,4.5,5.6,4.2,6,3.6C6.5,3,6.7,1.7,6.7-0.1C6.7-2,6.5-3.3,6-3.9C5.6-4.5,5-4.8,4.4-4.8C3.7-4.8,3.2-4.6,2.8-4
			C2.4-3.3,2.1-2,2.1-0.1z"/>
	</g>
	<g transform="translate(511.0888,326.3333)">
		<path class="st10" d="M8.1,4.1v1.4H0.5c0-0.3,0-0.7,0.2-1C0.8,4,1.1,3.5,1.6,3s1-1.1,1.8-1.7c1.2-1,2.1-1.8,2.5-2.4
			c0.4-0.6,0.7-1.2,0.7-1.7c0-0.6-0.2-1-0.6-1.4C5.6-4.6,5.1-4.8,4.4-4.8c-0.7,0-1.2,0.2-1.6,0.6c-0.4,0.4-0.6,1-0.6,1.7L0.8-2.7
			c0.1-1.1,0.5-1.9,1.1-2.5C2.5-5.7,3.4-6,4.5-6c1.1,0,2,0.3,2.6,0.9c0.6,0.6,1,1.4,1,2.3c0,0.5-0.1,0.9-0.3,1.4
			C7.6-1,7.3-0.6,6.8-0.1c-0.4,0.5-1.2,1.2-2.2,2C3.8,2.7,3.3,3.1,3,3.4C2.8,3.6,2.6,3.9,2.4,4.1H8.1z"/>
	</g>
	<g transform="translate(511.0888,278.6667)">
		<path class="st10" d="M5.2,5.5V2.8h-5V1.5L5.4-6h1.1v7.4h1.5v1.3H6.6v2.7H5.2z M5.2,1.5v-5.2L1.6,1.5H5.2z"/>
	</g>
	<g transform="translate(511.0888,231)">
		<path class="st10" d="M8-3.1L6.6-3C6.4-3.6,6.3-4,6-4.2C5.7-4.6,5.2-4.8,4.6-4.8c-0.4,0-0.8,0.1-1.2,0.4C3-4.1,2.7-3.7,2.4-3.1
			S2-1.6,2-0.4c0.3-0.5,0.8-0.9,1.2-1.1s1-0.4,1.5-0.4c0.9,0,1.7,0.3,2.4,1c0.7,0.7,1,1.6,1,2.7c0,0.7-0.2,1.4-0.5,2
			C7.4,4.4,7,4.9,6.4,5.2C5.9,5.5,5.3,5.7,4.6,5.7c-1.2,0-2.1-0.4-2.9-1.3C1,3.5,0.6,2.1,0.6,0.1c0-2.2,0.4-3.8,1.2-4.8
			C2.5-5.6,3.5-6,4.7-6c0.9,0,1.6,0.3,2.2,0.8S7.8-4,8-3.1z M2.2,1.8c0,0.5,0.1,0.9,0.3,1.4C2.7,3.6,3,4,3.4,4.2
			c0.4,0.2,0.8,0.3,1.2,0.3c0.6,0,1.1-0.2,1.5-0.7c0.4-0.5,0.6-1.1,0.6-2c0-0.8-0.2-1.4-0.6-1.9c-0.4-0.5-1-0.7-1.6-0.7
			C3.9-0.7,3.3-0.5,2.9,0C2.4,0.5,2.2,1,2.2,1.8z"/>
	</g>
	<g>
		<path class="st11" d="M72.9,365.6l0.9,0.4l2.4-1.9l2.6,0.8l2.3-0.8l2.6-0.8l2.5,1.6l2.7-0.3l2.4,0.5l2.6-1.1l2.4,0.3l2.4-0.3
			l2.7-2.4l2.4,0.8l2.5,1.6l2.6-1.3l2.5-0.3l2.6,1.6l2.4,0.3l2.5,0.3l2.4-2.4l2.4,1.1l2.5-0.8l2.4-0.8l2.5,0.5l2.5,0.5l2.9,0.3h2.4
			l2.5,3.7l2.4,0.8l2.6-7.7l2.6,2.1l2.6,2.9l2.4-10.6l2.7-33l2.4-48.2l2.5-26.9l2.6-6.1l2.4,1.9l2.4-2.9l2.3,0.3l2.3,0.8l2.4,0.8
			l2.4,2.4l2.4,36.2l2.6,56.7l2.5,16.2l2.4,13.6l2.4,0.8l2.4,2.4l2.6,1.1l2.5,0.8l2.5-0.8l2.5-6.9l2.4-2.9l2.6,3.2l2.7,2.4l2.5-0.8
			l2.4-0.5l2.6-0.8l2.5-1.6l2.4,1.1l2.6,3.5l2.4-2.1l2.5,1.1l2.3,2.1l2.6-2.7l2.7,0.5l2.4-2.1l2.6-0.8l2.4-0.8l2.4-0.5l2.7,1.6
			l2.4-0.3l2.5,1.6l2.3-0.5l2.5,1.3l2.5,0.8l2.4,0.5l2.5-2.7l2.3,0.8l2.6,0.3l2.6-1.9l2.3,1.3l2.4,0.3l2.4-0.3l2.6-1.6l2.6-0.3
			l2.3,1.3l2.3,1.9l2.6,0.8l2.5,1.1l2.4,0.5l2.6,0.8l2.4-2.9l2.5-0.8l2.7,0.5l2.5,0.3h2.4l2.4-1.3l2.5-1.3l2.6,2.9l2.6,2.4l2.4-1.6
			l2.5-0.3h2.4l2.5-1.9l2.4-0.8l2.4-1.3l2.3,1.6l2.5,1.6h2.4l2.6-1.1l2.6-0.5l2.3,0.8l2.5-0.5l2.6-0.3l2.4,0.8h2.4l2.4,0.8l2.5-1.3
			l2.5-2.1l2.4-1.6l2.5-0.8l2.4,2.1l2.6,0.5l2.5,1.3l2.4,1.1l2.4,0.3l2.3-2.1l2.5-5.6l2.4-0.8l2.4,1.6l2.6,3.2l2.4,5.1l2.5,1.3
			l2.4-28.5l2.5-48.4l2.6-45.2l2.4-3.5l2.5-2.7l2.3-3.5l2.5,3.2l2.3,4.8l2.7,1.1l2.3-3.5l2.6-2.9l2.5,2.1l2.3,28.7l2.5,53.7
			l2.3,33.5l2.4,12.2l2.4-1.1l2.6-1.1l2.3,1.9l2.6-2.4l2.4-0.3l2.3,0.5l2.5-1.6l2.4-1.6l2.7,0.8l2.4,0.3l2.4,2.4l2.5-3.7l2.4,1.1
			l2.3,1.1l2.5-2.4l2.6-0.8l2.3,2.1l2.6,3.2l2.7,1.6l2.3-0.3l2.6-1.3l2.6-0.8l2.3,1.1l2.3-1.1l2.3-1.7"/>
	</g>
</g>
</svg>
